# xmcd CD database file
#
# Track frame offsets:
#	150
#	12865
#	24677
#	36265
#	45265
#	57040
#	69715
#	84227
#	97390
#	117002
#	128402
#	141265
#	165490
#	185402
#	200437
#	217990
#	227290
#	239140
#	259087
#
# Disc length: 3718 seconds
#
# Revision: 2
# Processed by: cddbd v1.5.1PL0 Copyright (c) Steve Scherf et al.
# Submitted via: CDex 1.51
#
DISCID=fd0e8413
DTITLE=Various Artist - Rounder Bluegrass Guitar
DYEAR=1996
DGENRE=Bluegrass
TTITLE0=Clarence White - Nine Pound Hammer
TTITLE1=Tony Rice - Eighth of January
TTITLE2=JD Crowe and the Bluegrass Album Band - Preaching, Praying, Singing
TTITLE3=David Grier - Flop Eared Mule
TTITLE4=David McLaughlin - Going Back to Old Virginia
TTITLE5=Wyatt Rice - Fisher's Hornpipe
TTITLE6=Norman Blake and Tony Rice and Doc Watson - Salt Creek
TTITLE7=Jody Stecher and Kate Brislin - Paul and Silas
TTITLE8=Russ Barenberg - Gimmicks Ahoy
TTITLE9=Wyatt Rice - Shenandoah Breakdown
TTITLE10=Robert Hale with Livewire - Love Please Come Home
TTITLE11=Dan Crary - Grey Eagle
TTITLE12=Mark O'Connor - Blackberry Blossom
TTITLE13=David Grier - Smith Chapel
TTITLE14=Peter McLaughlin with Laurie Lewis - Swept Away
TTITLE15=Jon Shole - Avenue L Breakdown
TTITLE16=Don Reno - Country Boy Rock n Roll
TTITLE17=Scott Nygaard - Red Apple Rag
TTITLE18=Clarence White - Sally Goodin
EXTD=YEAR: 1996
EXTT0=
EXTT1=
EXTT2=
EXTT3=
EXTT4=
EXTT5=
EXTT6=
EXTT7=
EXTT8=
EXTT9=
EXTT10=
EXTT11=
EXTT12=
EXTT13=
EXTT14=
EXTT15=
EXTT16=
EXTT17=
EXTT18=
PLAYORDER=
